<mxfile host="app.diagrams.net" agent="Mozilla/5.0 (Windows NT 10.0; Win64; x64) AppleWebKit/537.36 (KHTML, like Gecko) Chrome/130.0.0.0 Safari/537.36" version="24.8.6">
  <diagram name="Página-1" id="8kVHjRTo8eySQk6za50w">
    <mxGraphModel dx="1050" dy="530" grid="1" gridSize="10" guides="1" tooltips="1" connect="1" arrows="1" fold="1" page="1" pageScale="1" pageWidth="827" pageHeight="1169" math="0" shadow="0">
      <root>
        <mxCell id="0" />
        <mxCell id="1" parent="0" />
        <mxCell id="s_InROqVPzvEBcBOvhOb-3" value="" style="edgeStyle=orthogonalEdgeStyle;rounded=0;orthogonalLoop=1;jettySize=auto;html=1;" edge="1" parent="1" source="s_InROqVPzvEBcBOvhOb-1" target="s_InROqVPzvEBcBOvhOb-2">
          <mxGeometry relative="1" as="geometry" />
        </mxCell>
        <mxCell id="s_InROqVPzvEBcBOvhOb-1" value="Cliente(User)" style="rounded=0;whiteSpace=wrap;html=1;" vertex="1" parent="1">
          <mxGeometry x="140" y="90" width="120" height="60" as="geometry" />
        </mxCell>
        <mxCell id="s_InROqVPzvEBcBOvhOb-6" value="" style="edgeStyle=orthogonalEdgeStyle;rounded=0;orthogonalLoop=1;jettySize=auto;html=1;" edge="1" parent="1" source="s_InROqVPzvEBcBOvhOb-2" target="s_InROqVPzvEBcBOvhOb-5">
          <mxGeometry relative="1" as="geometry" />
        </mxCell>
        <mxCell id="s_InROqVPzvEBcBOvhOb-2" value="Contenerdor Docker&lt;br&gt;(pokemon-service)" style="rounded=0;whiteSpace=wrap;html=1;" vertex="1" parent="1">
          <mxGeometry x="340" y="90" width="120" height="60" as="geometry" />
        </mxCell>
        <mxCell id="s_InROqVPzvEBcBOvhOb-4" value="HTTP" style="text;html=1;align=center;verticalAlign=middle;whiteSpace=wrap;rounded=0;" vertex="1" parent="1">
          <mxGeometry x="270" y="90" width="60" height="30" as="geometry" />
        </mxCell>
        <mxCell id="s_InROqVPzvEBcBOvhOb-8" value="" style="edgeStyle=orthogonalEdgeStyle;rounded=0;orthogonalLoop=1;jettySize=auto;html=1;" edge="1" parent="1" source="s_InROqVPzvEBcBOvhOb-5" target="s_InROqVPzvEBcBOvhOb-7">
          <mxGeometry relative="1" as="geometry" />
        </mxCell>
        <mxCell id="s_InROqVPzvEBcBOvhOb-5" value="Servicio API&lt;div&gt;(Golang = Gin)&lt;/div&gt;" style="whiteSpace=wrap;html=1;rounded=0;" vertex="1" parent="1">
          <mxGeometry x="340" y="230" width="120" height="60" as="geometry" />
        </mxCell>
        <mxCell id="s_InROqVPzvEBcBOvhOb-10" value="" style="edgeStyle=orthogonalEdgeStyle;rounded=0;orthogonalLoop=1;jettySize=auto;html=1;" edge="1" parent="1" source="s_InROqVPzvEBcBOvhOb-7" target="s_InROqVPzvEBcBOvhOb-9">
          <mxGeometry relative="1" as="geometry" />
        </mxCell>
        <mxCell id="s_InROqVPzvEBcBOvhOb-7" value="Lógica de negocio&lt;br&gt;(Services)" style="whiteSpace=wrap;html=1;rounded=0;" vertex="1" parent="1">
          <mxGeometry x="340" y="370" width="120" height="60" as="geometry" />
        </mxCell>
        <mxCell id="s_InROqVPzvEBcBOvhOb-12" value="" style="edgeStyle=orthogonalEdgeStyle;rounded=0;orthogonalLoop=1;jettySize=auto;html=1;" edge="1" parent="1" source="s_InROqVPzvEBcBOvhOb-9" target="s_InROqVPzvEBcBOvhOb-11">
          <mxGeometry relative="1" as="geometry" />
        </mxCell>
        <mxCell id="s_InROqVPzvEBcBOvhOb-9" value="Base de datos&lt;div&gt;(SQLite)&lt;/div&gt;" style="whiteSpace=wrap;html=1;rounded=0;" vertex="1" parent="1">
          <mxGeometry x="340" y="510" width="120" height="60" as="geometry" />
        </mxCell>
        <mxCell id="s_InROqVPzvEBcBOvhOb-11" value="PokeAPI&lt;div&gt;(Servicio Externo)&lt;/div&gt;" style="whiteSpace=wrap;html=1;rounded=0;" vertex="1" parent="1">
          <mxGeometry x="340" y="650" width="120" height="60" as="geometry" />
        </mxCell>
      </root>
    </mxGraphModel>
  </diagram>
</mxfile>
